{"asset":{"version":"2.0","generator":"Blockbench 4.1.5 glTF exporter"},"scenes":[{"nodes":[18],"name":"blockbench_export"}],"scene":0,"nodes":[{"rotation":[-0.13015349595627196,0.00006488283531149667,0.044112300607269804,0.9905120737354554],"translation":[0.5430345258462883,0.2835407317695524,0.24522306367690916],"name":"Arm Right Upper","mesh":0},{"rotation":[-0.13015349595627196,0.00006488283531149667,0.044112300607269804,0.9905120737354554],"translation":[0.5430345258462883,0.2835407317695524,0.24522306367690916],"name":"Arm Right Lower","mesh":1},{"rotation":[0.10957526915819213,-0.000861675701124596,0.023918623509267024,0.9936903025356129],"translation":[-0.3383128610171776,0.21902379269131977,0.3305780064615568],"name":"Arm Left Lower","mesh":2},{"rotation":[0.10957526915819213,-0.000861675701124596,0.023918623509267024,0.9936903025356129],"translation":[-0.3383128610171776,0.21902379269131977,0.3305780064615568],"name":"Arm Left Upper","mesh":3},{"name":"Arms","children":[0,1,2,3]},{"rotation":[-0.00944096336156989,0.21623361138472563,-0.04258543371779522,0.9753667896506382],"translation":[2.7755575615628914e-17,1.3437500000000004,0],"name":"Halo Lower","mesh":4},{"rotation":[-0.00944096336156989,0.21623361138472563,-0.04258543371779522,0.9753667896506382],"translation":[2.7755575615628914e-17,1.3437500000000004,0],"name":"Halo Lower inner","mesh":5},{"rotation":[0.005700258306074195,-0.0869691356122389,0.06515425057767783,0.9940617687738349],"translation":[2.7755575615628914e-17,1.46875,-5.551115123125783e-17],"name":"Halo Upper inner","mesh":6},{"rotation":[0.005700258306074195,-0.0869691356122389,0.06515425057767783,0.9940617687738349],"translation":[2.7755575615628914e-17,1.46875,-5.551115123125783e-17],"name":"Halo Upper","mesh":7},{"translation":[0,-1,0],"name":"Halos","children":[5,6,7,8]},{"translation":[0,-0.17500000000000004,0],"name":"Head","mesh":8},{"rotation":[-0.01716025548671911,-0.042749443697230154,0.07261359065166567,0.996295777943418],"translation":[-0.0625,1.09375,0.046875],"name":"Head","children":[9,10]},{"rotation":[-0.34128785194486455,-0.008536821417686538,0.06484359639299266,0.9376806667526879],"translation":[0.12468071898981532,0.25255978885183705,0.3298271467853486],"name":"Chest","mesh":9},{"rotation":[-0.34128785194486455,-0.008536821417686538,0.06484359639299266,0.9376806667526879],"translation":[0.12468071898981532,0.25255978885183705,0.3298271467853486],"name":"Torso","mesh":10},{"rotation":[0.12703731958777337,0.03641578672599937,-0.04661085807915689,0.9901327374742263],"translation":[0.12468071898981532,0.25255978885183705,0.3298271467853486],"name":"Trail Upper","mesh":11},{"rotation":[0.32192593402653696,0.01990612864900103,0.09707676989901062,0.9415644108553199],"translation":[0.12468071898981532,0.25255978885183705,0.3298271467853486],"name":"Trail Lower","mesh":12},{"name":"Body","children":[4,11,12,13,14,15]},{"translation":[0,0.5,0],"name":"Root","children":[16]},{"children":[17]}],"bufferViews":[{"buffer":0,"byteOffset":0,"byteLength":288,"target":34962,"byteStride":12},{"buffer":0,"byteOffset":288,"byteLength":288,"target":34962,"byteStride":12},{"buffer":0,"byteOffset":576,"byteLength":192,"target":34962,"byteStride":8},{"buffer":0,"byteOffset":768,"byteLength":72,"target":34963},{"buffer":0,"byteOffset":840,"byteLength":288,"target":34962,"byteStride":12},{"buffer":0,"byteOffset":1128,"byteLength":288,"target":34962,"byteStride":12},{"buffer":0,"byteOffset":1416,"byteLength":192,"target":34962,"byteStride":8},{"buffer":0,"byteOffset":1608,"byteLength":72,"target":34963},{"buffer":0,"byteOffset":1680,"byteLength":288,"target":34962,"byteStride":12},{"buffer":0,"byteOffset":1968,"byteLength":288,"target":34962,"byteStride":12},{"buffer":0,"byteOffset":2256,"byteLength":192,"target":34962,"byteStride":8},{"buffer":0,"byteOffset":2448,"byteLength":72,"target":34963},{"buffer":0,"byteOffset":2520,"byteLength":288,"target":34962,"byteStride":12},{"buffer":0,"byteOffset":2808,"byteLength":288,"target":34962,"byteStride":12},{"buffer":0,"byteOffset":3096,"byteLength":192,"target":34962,"byteStride":8},{"buffer":0,"byteOffset":3288,"byteLength":72,"target":34963},{"buffer":0,"byteOffset":3360,"byteLength":288,"target":34962,"byteStride":12},{"buffer":0,"byteOffset":3648,"byteLength":288,"target":34962,"byteStride":12},{"buffer":0,"byteOffset":3936,"byteLength":192,"target":34962,"byteStride":8},{"buffer":0,"byteOffset":4128,"byteLength":72,"target":34963},{"buffer":0,"byteOffset":4200,"byteLength":288,"target":34962,"byteStride":12},{"buffer":0,"byteOffset":4488,"byteLength":288,"target":34962,"byteStride":12},{"buffer":0,"byteOffset":4776,"byteLength":192,"target":34962,"byteStride":8},{"buffer":0,"byteOffset":4968,"byteLength":48,"target":34963},{"buffer":0,"byteOffset":5016,"byteLength":288,"target":34962,"byteStride":12},{"buffer":0,"byteOffset":5304,"byteLength":288,"target":34962,"byteStride":12},{"buffer":0,"byteOffset":5592,"byteLength":192,"target":34962,"byteStride":8},{"buffer":0,"byteOffset":5784,"byteLength":48,"target":34963},{"buffer":0,"byteOffset":5832,"byteLength":288,"target":34962,"byteStride":12},{"buffer":0,"byteOffset":6120,"byteLength":288,"target":34962,"byteStride":12},{"buffer":0,"byteOffset":6408,"byteLength":192,"target":34962,"byteStride":8},{"buffer":0,"byteOffset":6600,"byteLength":72,"target":34963},{"buffer":0,"byteOffset":6672,"byteLength":288,"target":34962,"byteStride":12},{"buffer":0,"byteOffset":6960,"byteLength":288,"target":34962,"byteStride":12},{"buffer":0,"byteOffset":7248,"byteLength":192,"target":34962,"byteStride":8},{"buffer":0,"byteOffset":7440,"byteLength":72,"target":34963},{"buffer":0,"byteOffset":7512,"byteLength":288,"target":34962,"byteStride":12},{"buffer":0,"byteOffset":7800,"byteLength":288,"target":34962,"byteStride":12},{"buffer":0,"byteOffset":8088,"byteLength":192,"target":34962,"byteStride":8},{"buffer":0,"byteOffset":8280,"byteLength":72,"target":34963},{"buffer":0,"byteOffset":8352,"byteLength":288,"target":34962,"byteStride":12},{"buffer":0,"byteOffset":8640,"byteLength":288,"target":34962,"byteStride":12},{"buffer":0,"byteOffset":8928,"byteLength":192,"target":34962,"byteStride":8},{"buffer":0,"byteOffset":9120,"byteLength":72,"target":34963},{"buffer":0,"byteOffset":9192,"byteLength":288,"target":34962,"byteStride":12},{"buffer":0,"byteOffset":9480,"byteLength":288,"target":34962,"byteStride":12},{"buffer":0,"byteOffset":9768,"byteLength":192,"target":34962,"byteStride":8},{"buffer":0,"byteOffset":9960,"byteLength":72,"target":34963},{"buffer":0,"byteOffset":10032,"byteLength":288,"target":34962,"byteStride":12},{"buffer":0,"byteOffset":10320,"byteLength":288,"target":34962,"byteStride":12},{"buffer":0,"byteOffset":10608,"byteLength":192,"target":34962,"byteStride":8},{"buffer":0,"byteOffset":10800,"byteLength":72,"target":34963}],"buffers":[{"byteLength":10872,"uri":"data:application/octet-stream;base64,"}],"accessors":[{"bufferView":0,"componentType":5126,"count":24,"max":[0.1875,0.421875,0.125],"min":[-0.125,-0.015625,-0.125],"type":"VEC3"},{"bufferView":1,"componentType":5126,"count":24,"max":[1,1,1],"min":[-1,-1,-1],"type":"VEC3"},{"bufferView":2,"componentType":5126,"count":24,"max":[0.796875,1],"min":[0.515625,0.828125],"type":"VEC2"},{"bufferView":3,"componentType":5123,"count":36,"max":[23],"min":[0],"type":"SCALAR"},{"bufferView":4,"componentType":5126,"count":24,"max":[0.125,-0.015625,0.125],"min":[-0.125,-0.390625,-0.125],"type":"VEC3"},{"bufferView":5,"componentType":5126,"count":24,"max":[1,1,1],"min":[-1,-1,-1],"type":"VEC3"},{"bufferView":6,"componentType":5126,"count":24,"max":[0.765625,0.8125],"min":[0.515625,0.65625],"type":"VEC2"},{"bufferView":7,"componentType":5123,"count":36,"max":[23],"min":[0],"type":"SCALAR"},{"bufferView":8,"componentType":5126,"count":24,"max":[0.140625,-0.078125,-0.0625],"min":[-0.109375,-0.453125,-0.3125],"type":"VEC3"},{"bufferView":9,"componentType":5126,"count":24,"max":[1,1,1],"min":[-1,-1,-1],"type":"VEC3"},{"bufferView":10,"componentType":5126,"count":24,"max":[0.765625,0.8125],"min":[0.515625,0.65625],"type":"VEC2"},{"bufferView":11,"componentType":5123,"count":36,"max":[23],"min":[0],"type":"SCALAR"},{"bufferView":12,"componentType":5126,"count":24,"max":[0.140625,0.359375,-0.0625],"min":[-0.171875,-0.078125,-0.3125],"type":"VEC3"},{"bufferView":13,"componentType":5126,"count":24,"max":[1,1,1],"min":[-1,-1,-1],"type":"VEC3"},{"bufferView":14,"componentType":5126,"count":24,"max":[0.796875,1],"min":[0.515625,0.828125],"type":"VEC2"},{"bufferView":15,"componentType":5123,"count":36,"max":[23],"min":[0],"type":"SCALAR"},{"bufferView":16,"componentType":5126,"count":24,"max":[0.375,0.03125,0.375],"min":[-0.375,-0.03125,-0.375],"type":"VEC3"},{"bufferView":17,"componentType":5126,"count":24,"max":[1,1,1],"min":[-1,-1,-1],"type":"VEC3"},{"bufferView":18,"componentType":5126,"count":24,"max":[0.96875,0.34375],"min":[0.21875,0.140625],"type":"VEC2"},{"bufferView":19,"componentType":5123,"count":36,"max":[23],"min":[0],"type":"SCALAR"},{"bufferView":20,"componentType":5126,"count":24,"max":[0.3125,0.03125,0.3125],"min":[-0.3125,-0.03125,-0.3125],"type":"VEC3"},{"bufferView":21,"componentType":5126,"count":24,"max":[1,1,1],"min":[-1,-1,-1],"type":"VEC3"},{"bufferView":22,"componentType":5126,"count":24,"max":[1,1],"min":[0,0],"type":"VEC2"},{"bufferView":23,"componentType":5123,"count":24,"max":[23],"min":[0],"type":"SCALAR"},{"bufferView":24,"componentType":5126,"count":24,"max":[0.1875,0.03125,0.1875],"min":[-0.1875,-0.03125,-0.1875],"type":"VEC3"},{"bufferView":25,"componentType":5126,"count":24,"max":[1,1,1],"min":[-1,-1,-1],"type":"VEC3"},{"bufferView":26,"componentType":5126,"count":24,"max":[1,1],"min":[0,0],"type":"VEC2"},{"bufferView":27,"componentType":5123,"count":24,"max":[23],"min":[0],"type":"SCALAR"},{"bufferView":28,"componentType":5126,"count":24,"max":[0.25,0.03125,0.25],"min":[-0.25,-0.03125,-0.25],"type":"VEC3"},{"bufferView":29,"componentType":5126,"count":24,"max":[1,1,1],"min":[-1,-1,-1],"type":"VEC3"},{"bufferView":30,"componentType":5126,"count":24,"max":[0.890625,0.53125],"min":[0.390625,0.390625],"type":"VEC2"},{"bufferView":31,"componentType":5123,"count":36,"max":[23],"min":[0],"type":"SCALAR"},{"bufferView":32,"componentType":5126,"count":24,"max":[0.25,0.42500001192092896,0.25],"min":[-0.25,-0.07500000298023224,-0.25],"type":"VEC3"},{"bufferView":33,"componentType":5126,"count":24,"max":[1,1,1],"min":[-1,-1,-1],"type":"VEC3"},{"bufferView":34,"componentType":5126,"count":24,"max":[0.5,1],"min":[0,0.75],"type":"VEC2"},{"bufferView":35,"componentType":5123,"count":36,"max":[23],"min":[0],"type":"SCALAR"},{"bufferView":36,"componentType":5126,"count":24,"max":[0.3128192722797394,0.4869222044944763,0.3103106617927551],"min":[-0.3121807277202606,0.11192221194505692,-0.06468932330608368],"type":"VEC3"},{"bufferView":37,"componentType":5126,"count":24,"max":[1,1,1],"min":[-1,-1,-1],"type":"VEC3"},{"bufferView":38,"componentType":5126,"count":24,"max":[0.5,0.734375],"min":[0,0.546875],"type":"VEC2"},{"bufferView":39,"componentType":5123,"count":36,"max":[23],"min":[0],"type":"SCALAR"},{"bufferView":40,"componentType":5126,"count":24,"max":[0.18781928718090057,0.11192221194505692,0.3103106617927551],"min":[-0.18718071281909943,-0.07557778805494308,-0.06468932330608368],"type":"VEC3"},{"bufferView":41,"componentType":5126,"count":24,"max":[1,1,1],"min":[-1,-1,-1],"type":"VEC3"},{"bufferView":42,"componentType":5126,"count":24,"max":[0.375,0.53125],"min":[0,0.390625],"type":"VEC2"},{"bufferView":43,"componentType":5123,"count":36,"max":[23],"min":[0],"type":"SCALAR"},{"bufferView":44,"componentType":5126,"count":24,"max":[0.12531928718090057,-0.1394142508506775,0.3438819348812103],"min":[-0.12468072026968002,-0.4519142508506775,0.09388194233179092],"type":"VEC3"},{"bufferView":45,"componentType":5126,"count":24,"max":[1,1,1],"min":[-1,-1,-1],"type":"VEC3"},{"bufferView":46,"componentType":5126,"count":24,"max":[0.25,0.375],"min":[0,0.234375],"type":"VEC2"},{"bufferView":47,"componentType":5123,"count":36,"max":[23],"min":[0],"type":"SCALAR"},{"bufferView":48,"componentType":5126,"count":24,"max":[-0.04655572026968002,-0.457853227853775,0.4347323477268219],"min":[-0.17155571281909943,-0.6453532576560974,0.3097323477268219],"type":"VEC3"},{"bufferView":49,"componentType":5126,"count":24,"max":[1,1,1],"min":[-1,-1,-1],"type":"VEC3"},{"bufferView":50,"componentType":5126,"count":24,"max":[0.390625,0.375],"min":[0.265625,0.296875],"type":"VEC2"},{"bufferView":51,"componentType":5123,"count":36,"max":[23],"min":[0],"type":"SCALAR"}],"materials":[{"pbrMetallicRoughness":{"metallicFactor":0,"roughnessFactor":1,"baseColorTexture":{"index":0}},"alphaMode":"MASK","alphaCutoff":0.05,"doubleSided":true}],"textures":[{"sampler":0,"source":0,"name":"minder.png"}],"samplers":[{"magFilter":9728,"minFilter":9728,"wrapS":33071,"wrapT":33071}],"images":[{"mimeType":"image/png","uri":"data:image/png;base64,"}],"meshes":[{"primitives":[{"mode":4,"attributes":{"POSITION":0,"NORMAL":1,"TEXCOORD_0":2},"indices":3,"material":0}]},{"primitives":[{"mode":4,"attributes":{"POSITION":4,"NORMAL":5,"TEXCOORD_0":6},"indices":7,"material":0}]},{"primitives":[{"mode":4,"attributes":{"POSITION":8,"NORMAL":9,"TEXCOORD_0":10},"indices":11,"material":0}]},{"primitives":[{"mode":4,"attributes":{"POSITION":12,"NORMAL":13,"TEXCOORD_0":14},"indices":15,"material":0}]},{"primitives":[{"mode":4,"attributes":{"POSITION":16,"NORMAL":17,"TEXCOORD_0":18},"indices":19,"material":0}]},{"primitives":[{"mode":4,"attributes":{"POSITION":20,"NORMAL":21,"TEXCOORD_0":22},"indices":23,"material":0}]},{"primitives":[{"mode":4,"attributes":{"POSITION":24,"NORMAL":25,"TEXCOORD_0":26},"indices":27,"material":0}]},{"primitives":[{"mode":4,"attributes":{"POSITION":28,"NORMAL":29,"TEXCOORD_0":30},"indices":31,"material":0}]},{"primitives":[{"mode":4,"attributes":{"POSITION":32,"NORMAL":33,"TEXCOORD_0":34},"indices":35,"material":0}]},{"primitives":[{"mode":4,"attributes":{"POSITION":36,"NORMAL":37,"TEXCOORD_0":38},"indices":39,"material":0}]},{"primitives":[{"mode":4,"attributes":{"POSITION":40,"NORMAL":41,"TEXCOORD_0":42},"indices":43,"material":0}]},{"primitives":[{"mode":4,"attributes":{"POSITION":44,"NORMAL":45,"TEXCOORD_0":46},"indices":47,"material":0}]},{"primitives":[{"mode":4,"attributes":{"POSITION":48,"NORMAL":49,"TEXCOORD_0":50},"indices":51,"material":0}]}]}